<svg width="41" height="41" viewBox="0 0 41 41" fill="none" xmlns="http://www.w3.org/2000/svg">
<path d="M9.99375 16.1759C9.75352 15.8395 9.65742 15.6313 9.70547 15.5513C9.7375 15.4712 9.96172 15.4392 10.3301 15.4712C10.6984 15.5032 11.0027 15.5513 11.259 15.6153C11.4992 15.6794 11.7074 15.7755 11.8676 15.8876C12.0277 15.9997 12.1559 16.1278 12.2359 16.304C12.332 16.4642 12.3961 16.6724 12.4602 16.8966C12.5723 17.345 12.5402 17.6493 12.3801 17.8095C12.2039 17.9696 11.9637 17.9376 11.6434 17.7134C11.307 17.4892 11.0187 17.2649 10.7625 17.0407C10.4902 16.8325 10.234 16.5282 9.99375 16.1759ZM6.51836 30.4458C7.28711 30.1095 7.95977 29.7731 8.53633 29.4208C9.09687 29.0845 9.59336 28.7161 10.0258 28.3317C10.4422 27.9634 10.8266 27.547 11.1469 27.0985C11.4672 26.6661 11.7555 26.1696 12.0117 25.6251C12.2199 25.8173 12.4121 26.0095 12.6203 26.1856C12.8125 26.3618 13.0207 26.538 13.2289 26.7302C13.4371 26.9224 13.6773 27.1145 13.9176 27.3388C14.1578 27.563 14.4461 27.7872 14.7664 28.0595C14.8785 28.1395 14.9906 28.2036 15.1027 28.2196C15.2148 28.2356 15.375 28.2196 15.5992 28.1235C15.8074 28.0435 16.0797 27.8993 16.416 27.6751C16.7523 27.4669 17.1688 27.1786 17.6813 26.8102C17.9375 26.6341 18.0656 26.4899 18.0496 26.3778C18.0336 26.2657 17.8895 26.2177 17.6172 26.2337C17.1207 26.2497 16.6723 26.2497 16.2879 26.2177C15.8875 26.1856 15.4871 26.1216 15.1027 25.9935C14.7184 25.8653 14.318 25.6892 13.9016 25.4489C13.4852 25.2087 13.0047 24.8724 12.4441 24.456C12.6043 23.8313 12.7324 23.1747 12.8285 22.47C12.8766 22.0696 12.9246 21.7813 12.9566 21.5731C12.9887 21.381 13.0367 21.1888 13.1008 21.0446C13.1488 20.9165 13.1648 20.8204 13.1809 20.7403C13.1969 20.6603 13.1648 20.5802 13.1168 20.4841C13.0527 20.404 12.9566 20.3079 12.8125 20.2118C12.6684 20.1157 12.4602 19.9876 12.1879 19.8435C12.5723 19.6993 13.0047 19.5712 13.4531 19.427C13.8855 19.2829 14.366 19.1388 14.8625 18.9946C15.343 18.8505 15.5832 18.6903 15.5992 18.4981C15.6152 18.306 15.4551 18.1298 15.0867 17.9376C14.8465 17.8095 14.6223 17.7614 14.398 17.7935C14.1738 17.8255 13.8855 17.9376 13.5332 18.1458C13.4371 18.2099 13.2449 18.2899 12.9887 18.402C12.7164 18.5142 12.4121 18.6423 12.0277 18.8024C11.6434 18.9626 11.227 19.1228 10.7785 19.2989C10.3141 19.4751 9.84961 19.6513 9.38516 19.8114C8.9207 19.9876 8.47227 20.1317 8.07188 20.2599C7.65547 20.388 7.33516 20.4841 7.09492 20.5161C6.48633 20.6442 6.16602 20.7724 6.15 20.9005C6.15 21.0286 6.39023 21.1567 6.85469 21.2849C7.04687 21.3329 7.22305 21.381 7.35117 21.381C7.4793 21.397 7.62344 21.397 7.75156 21.381C7.87969 21.3649 8.00781 21.3329 8.13594 21.3009C8.26406 21.2528 8.4082 21.1888 8.58437 21.1247C8.84062 20.9966 9.20898 20.8524 9.68945 20.6763C10.1539 20.5161 10.7465 20.2919 11.4832 20.0356C11.6273 20.4681 11.7074 20.9966 11.7074 21.6052C11.7074 22.2138 11.6434 22.9024 11.4832 23.6872C11.275 23.511 11.0508 23.3188 10.8105 23.1106C10.5703 22.9024 10.3461 22.6942 10.1219 22.486C9.86563 22.2458 9.60938 22.0856 9.36914 22.0056C9.11289 21.9255 8.82461 21.9255 8.48828 22.0056C7.95977 22.1497 7.6875 22.3099 7.70352 22.502C7.70352 22.6942 7.91172 22.7903 8.31211 22.8063C8.45625 22.8224 8.60039 22.8544 8.74453 22.9024C8.88867 22.9505 9.04883 23.0466 9.25703 23.1907C9.46523 23.3349 9.72148 23.5431 10.0098 23.7993C10.298 24.0556 10.6824 24.3919 11.1309 24.8083C10.9387 25.2727 10.7145 25.7052 10.4742 26.0895C10.234 26.4899 9.92969 26.8903 9.59336 27.2587C9.24102 27.6431 8.84063 28.0274 8.36016 28.4118C7.87969 28.8122 7.30313 29.2286 6.63047 29.661C5.9418 30.1095 5.58945 30.4138 5.58945 30.5579C5.60547 30.7661 5.92578 30.702 6.51836 30.4458ZM40.1191 13.1009V39.5747L22.2457 33.745L1.68164 40.5837V12.188L6.47031 10.5864V1.66572L19.475 6.26221L37.0441 0.416504V12.1239L40.1191 13.1009ZM19.8914 8.104L3.57148 13.5493V37.9251L19.8914 32.4958V8.104ZM35.1383 11.5153V3.04307L22.1176 7.36728L35.1383 11.5153ZM36.3555 32.3356L31.4707 14.7345L28.1875 13.7095L23.2387 28.2517L26.2656 29.1966L27.1945 26.2017L32.3035 27.8032L33.2164 31.3747L36.3555 32.3356ZM27.9953 23.6552L31.5508 24.7602L29.8051 17.8895L27.9953 23.6552Z" fill="white"/>
</svg>
